# xmcd
#
# Track frame offsets:
#	183
#	12355
#	24295
#	36983
#	50633
#	63863
#	77653
#	91450
#	103220
#	121783
#	131860
#	146643
#	161438
#	175645
#	188663
#	201190
#	212018
#	227655
#	239668
#	251908
#
# Disc length: 3500
#
# Revision: 3
# Processed by: cddbd v1.5.1PL0 Copyright (c) Steve Scherf et al.
# Submitted via: CDValet v3.01 - Copyright (c) 1997 Greg Leichner
# Normalized: r1:TDELIM( - ),TSWAP
#
DISCID=170daa14
DTITLE=Various Artist - Soul Brotthers and Sisters
DYEAR=1900
DGENRE=
TTITLE0=Martha Reeves - Dancing in the street
TTITLE1=The Fantastics - Something old something new
TTITLE2=Fontella Bass - Rescue me
TTITLE3=Eddie Floyd - Knock on Wood
TTITLE4=Percy Sledge - When a man loves a woman
TTITLE5=Ben E. King - Stand by me
TTITLE6=Jimmy Ruffin - What becomes of the broken hearted
TTITLE7=the Tams - Hey Girl don't bother me
TTITLE8=Freda Payne - Band of gold
TTITLE9=Gladys Knight - Operator
TTITLE10=Eddie Holman - Hey there lonely girl
TTITLE11=George McCrae - Rock your baby
TTITLE12=Billy Ocean - Love really hurts without you
TTITLE13=Bob and Earl - Harlem Shuffle
TTITLE14=Carla Thomas - Baby
TTITLE15=Betty Everett - It's in his Kiss
TTITLE16=Harold Melvin and the blue notes - If you don't know me by now
TTITLE17=Barbara Lynn - You'll lose a good thing
TTITLE18=The Drifters - Under the Boardwalk
TTITLE19=Sam and Dave - Sweet Soul music
EXTD=
EXTT0=
EXTT1=
EXTT2=
EXTT3=
EXTT4=
EXTT5=
EXTT6=
EXTT7=
EXTT8=
EXTT9=
EXTT10=
EXTT11=
EXTT12=
EXTT13=
EXTT14=
EXTT15=
EXTT16=
EXTT17=
EXTT18=
EXTT19=
PLAYORDER=
